<svg width="26" height="27" viewBox="0 0 26 27" fill="none" xmlns="http://www.w3.org/2000/svg">
<path d="M12.2393 0.164675C12.3502 -0.0549026 12.6638 -0.0549026 12.7748 0.164674L15.0407 4.64824C15.1158 4.79681 15.2975 4.85584 15.4455 4.77978L19.9141 2.48439C20.1329 2.37197 20.3866 2.55627 20.3473 2.79914L19.5451 7.75832C19.5186 7.92264 19.6308 8.07718 19.7953 8.10268L24.7597 8.87223C25.0028 8.90991 25.0997 9.20812 24.9252 9.38151L21.3613 12.9221C21.2432 13.0394 21.2432 13.2304 21.3613 13.3477L24.9252 16.8883C25.0997 17.0617 25.0028 17.3599 24.7597 17.3975L19.7953 18.1671C19.6308 18.1926 19.5186 18.3471 19.5451 18.5115L20.3473 23.4706C20.3866 23.7135 20.1329 23.8978 19.9141 23.7854L15.4455 21.49C15.2975 21.4139 15.1158 21.473 15.0407 21.6215L12.7748 26.1051C12.6638 26.3247 12.3502 26.3247 12.2393 26.1051L9.97332 21.6215C9.89824 21.473 9.71656 21.4139 9.5685 21.49L5.09993 23.7854C4.88109 23.8978 4.62742 23.7135 4.66671 23.4706L5.46889 18.5115C5.49547 18.3471 5.38319 18.1926 5.2187 18.1671L0.254352 17.3975C0.0112297 17.3599 -0.0856637 17.0617 0.0888743 16.8883L3.65279 13.3477C3.77088 13.2304 3.77088 13.0394 3.65279 12.9221L0.0888739 9.38151C-0.0856641 9.20812 0.0112297 8.90991 0.254352 8.87223L5.2187 8.10268C5.38319 8.07718 5.49547 7.92264 5.46889 7.75832L4.66671 2.79914C4.62742 2.55627 4.88109 2.37197 5.09993 2.48439L9.5685 4.77978C9.71656 4.85584 9.89824 4.79681 9.97332 4.64824L12.2393 0.164675Z" fill="black"/>
</svg>
